<?xml version="1.0" encoding="iso-8859-1"?>
<!-- Uploaded to: SVG Repo, www.svgrepo.com, Generator: SVG Repo Mixer Tools -->
<svg height="800px" width="800px" version="1.1" id="Layer_1" xmlns="http://www.w3.org/2000/svg" xmlns:xlink="http://www.w3.org/1999/xlink" 
	 viewBox="0 0 512 512" xml:space="preserve">
<g>
	<polygon style="fill:#F8E99B;" points="25.28,256.534 0,211.505 46.906,189.934 52.947,138.662 103.567,148.729 138.599,110.839 
		173.63,148.729 224.251,138.662 230.293,189.934 277.197,211.505 251.917,256.534 277.197,301.564 230.29,323.137 224.25,374.407 
		173.632,364.339 138.599,402.23 103.567,364.339 52.947,374.407 46.906,323.135 0,301.564 	"/>
	<polygon style="fill:#F8E99B;" points="387.9,94.65 380.356,67.384 404.969,53.443 418.91,28.828 446.178,36.372 473.444,28.828 
		487.387,53.44 512,67.381 504.456,94.65 512,121.916 487.387,135.858 473.446,160.472 446.178,152.929 418.912,160.472 
		404.97,135.861 380.356,121.918 	"/>
	<polygon style="fill:#F8E99B;" points="504.456,418.418 512,391.152 487.387,377.211 473.446,352.596 446.178,360.14 
		418.912,352.596 404.97,377.211 380.356,391.152 387.9,418.418 380.356,445.686 404.969,459.626 418.912,484.24 446.178,476.696 
		473.446,484.24 487.386,459.627 511.998,445.686 	"/>
</g>
<g>
	<polygon style="fill:#F5DC60;" points="173.63,147.661 224.251,137.593 230.293,188.865 277.197,210.435 251.917,255.466 
		277.197,300.495 230.29,322.066 224.25,373.337 173.632,363.271 138.599,401.161 138.599,109.77 	"/>
	<polygon style="fill:#F5DC60;" points="473.444,27.76 487.387,52.371 512,66.313 504.456,93.582 512,120.848 487.387,134.789 
		473.446,159.404 446.178,151.86 446.178,35.304 	"/>
	<polygon style="fill:#F5DC60;" points="487.387,376.142 512,390.084 504.456,417.35 512,444.617 487.387,458.557 473.446,483.172 
		446.178,475.628 446.178,359.072 473.446,351.528 	"/>
</g>
</svg>