<svg width="46" height="46" viewBox="0 0 46 46" fill="none" xmlns="http://www.w3.org/2000/svg">
<g filter="url(#filter0_i_133_45)">
<ellipse cx="22.9899" cy="23" rx="19.9625" ry="20" fill="#F2F2EC"/>
</g>
<path d="M22.9899 44.5C34.846 44.5 44.4524 34.8715 44.4524 23C44.4524 11.1285 34.846 1.5 22.9899 1.5C11.1338 1.5 1.52734 11.1285 1.52734 23C1.52734 34.8715 11.1338 44.5 22.9899 44.5Z" stroke="#382D62" stroke-width="3"/>
<path fill-rule="evenodd" clip-rule="evenodd" d="M29.8982 18.0535C29.7866 18.0839 26.9895 18.8762 23.6826 19.8142C20.3757 20.7521 17.2203 21.6469 16.6705 21.8027C15.5384 22.1236 15.3293 22.1955 15.1565 22.3234C14.8966 22.5159 14.9717 22.7156 15.3587 22.8613C15.4102 22.8807 16.12 23.0497 16.936 23.2368C17.752 23.4239 18.5967 23.6183 18.8132 23.6689L19.2067 23.7608L20.6784 23.0777C25.4078 20.8826 27.7446 19.8071 27.8361 19.7834C27.9797 19.7464 28.1044 19.75 28.1624 19.7929C28.2031 19.8231 28.2048 19.8382 28.1724 19.8825C28.1461 19.9185 21.8322 24.1388 21.2837 24.4871C21.2784 24.4904 21.219 25.0745 21.1518 25.7852C21.0845 26.4958 21.025 27.1173 21.0196 27.1664L21.0098 27.2556L21.1515 27.2414C21.2294 27.2336 21.3527 27.2039 21.4255 27.1754C21.4983 27.1468 21.988 26.8183 22.5138 26.4454C23.0396 26.0724 23.4882 25.762 23.5107 25.7556C23.5332 25.7493 24.3702 26.1883 25.3707 26.7314C26.3712 27.2745 27.2686 27.7458 27.3649 27.7786C27.6138 27.8635 27.882 27.8735 28.0731 27.805C28.2553 27.7397 28.4313 27.5486 28.5025 27.3385C28.5297 27.2583 28.7569 26.4797 29.0072 25.6084C29.2576 24.737 29.5041 23.8836 29.5549 23.7118C29.6057 23.5401 29.7591 23.0093 29.8957 22.5322C30.0324 22.0552 30.3308 21.0248 30.5589 20.2424C30.9261 18.9829 30.9736 18.7948 30.9739 18.6002C30.9742 18.4102 30.9635 18.3648 30.8948 18.2648C30.8463 18.1943 30.7635 18.1222 30.6827 18.0801C30.4979 17.9839 30.1919 17.9735 29.8982 18.0535Z" fill="#382D62"/>
<defs>
<filter id="filter0_i_133_45" x="0.0273438" y="0" width="45.9258" height="46" filterUnits="userSpaceOnUse" color-interpolation-filters="sRGB">
<feFlood flood-opacity="0" result="BackgroundImageFix"/>
<feBlend mode="normal" in="SourceGraphic" in2="BackgroundImageFix" result="shape"/>
<feColorMatrix in="SourceAlpha" type="matrix" values="0 0 0 0 0 0 0 0 0 0 0 0 0 0 0 0 0 0 127 0" result="hardAlpha"/>
<feOffset/>
<feGaussianBlur stdDeviation="10"/>
<feComposite in2="hardAlpha" operator="arithmetic" k2="-1" k3="1"/>
<feColorMatrix type="matrix" values="0 0 0 0 1 0 0 0 0 1 0 0 0 0 1 0 0 0 0.25 0"/>
<feBlend mode="normal" in2="shape" result="effect1_innerShadow_133_45"/>
</filter>
</defs>
</svg>
