<svg width="47" height="46" viewBox="0 0 47 46" fill="none" xmlns="http://www.w3.org/2000/svg">
<g filter="url(#filter0_i_133_51)">
<ellipse cx="23.1149" cy="23" rx="19.9625" ry="20" fill="#EEE9E2"/>
</g>
<path d="M23.1149 44.5C34.971 44.5 44.5774 34.8715 44.5774 23C44.5774 11.1285 34.971 1.5 23.1149 1.5C11.2588 1.5 1.65234 11.1285 1.65234 23C1.65234 34.8715 11.2588 44.5 23.1149 44.5Z" stroke="#637054" stroke-width="3"/>
<path fill-rule="evenodd" clip-rule="evenodd" d="M33.012 26.6978C32.781 26.8778 32.1656 26.9176 32.1656 26.9176H28.886C28.886 26.9176 28.4275 26.9918 27.6164 26.4047C27.0593 26.0014 26.4866 25.4065 26.0296 25.1591C25.757 25.0117 25.5006 25.0859 25.5006 25.0859C25.5006 25.0859 25.022 25.1018 24.9716 25.4522C24.8829 26.0678 24.76 26.4047 24.76 26.4047C24.76 26.4047 24.7016 26.665 24.5484 26.7711C24.3847 26.8845 24.1253 26.9176 24.1253 26.9176C24.1253 26.9176 19.5989 27.6243 16.0849 23.6938C13.5489 20.8571 13.2284 20.0303 13.2284 20.0303C13.2284 20.0303 13.0133 19.8299 13.2284 19.5907C13.4555 19.3381 13.7574 19.3709 13.7574 19.3709H16.7196C16.7196 19.3709 17.0472 19.3953 17.2486 19.5174C17.4694 19.6512 17.566 19.8838 17.566 19.8838C17.566 19.8838 18.2154 20.9712 18.9414 21.7888C19.9446 22.9185 20.4225 22.8146 20.4225 22.8146C20.4225 22.8146 21.2888 22.6476 20.7399 20.1036C20.6639 19.7516 19.6819 19.6639 19.6819 19.6639C19.6819 19.6639 19.6728 19.3602 19.8935 19.2243C20.1466 19.0684 20.4225 19.0778 20.4225 19.0778C20.4225 19.0778 20.8618 19.0246 22.4326 19.0045C23.2266 18.9944 23.8079 19.0045 23.8079 19.0045C23.8079 19.0045 24.1944 18.9956 24.6543 19.2243C24.8768 19.335 24.8658 19.5907 24.8658 19.5907C24.8658 19.5907 24.7725 21.4267 24.8658 22.375C24.906 22.7828 25.1832 22.8146 25.1832 22.8146C25.1832 22.8146 25.481 22.9743 26.6643 21.7888C27.4132 21.0386 28.0397 19.9571 28.0397 19.9571C28.0397 19.9571 28.1948 19.6486 28.3571 19.5174C28.5119 19.3923 28.7802 19.3709 28.7802 19.3709H32.5888C32.5888 19.3709 32.8237 19.3649 32.9062 19.5174C32.982 19.6575 32.9062 19.9571 32.9062 19.9571C32.9062 19.9571 32.8646 20.2889 32.483 20.6898C31.5821 21.6364 29.8382 23.1809 29.8382 23.1809C29.8382 23.1809 29.7073 23.3907 29.7324 23.5473C29.7601 23.7197 29.944 23.8403 29.944 23.8403C29.944 23.8403 31.2584 24.6641 32.1656 25.379C32.6558 25.7653 33.012 26.2583 33.012 26.2583C33.012 26.2583 33.1996 26.5516 33.012 26.6978Z" fill="#637054"/>
<defs>
<filter id="filter0_i_133_51" x="0.152344" y="0" width="45.9258" height="46" filterUnits="userSpaceOnUse" color-interpolation-filters="sRGB">
<feFlood flood-opacity="0" result="BackgroundImageFix"/>
<feBlend mode="normal" in="SourceGraphic" in2="BackgroundImageFix" result="shape"/>
<feColorMatrix in="SourceAlpha" type="matrix" values="0 0 0 0 0 0 0 0 0 0 0 0 0 0 0 0 0 0 127 0" result="hardAlpha"/>
<feOffset/>
<feGaussianBlur stdDeviation="10"/>
<feComposite in2="hardAlpha" operator="arithmetic" k2="-1" k3="1"/>
<feColorMatrix type="matrix" values="0 0 0 0 1 0 0 0 0 1 0 0 0 0 1 0 0 0 0.4 0"/>
<feBlend mode="normal" in2="shape" result="effect1_innerShadow_133_51"/>
</filter>
</defs>
</svg>
