<svg width="47" height="46" viewBox="0 0 47 46" fill="none" xmlns="http://www.w3.org/2000/svg">
<g filter="url(#filter0_i_133_48)">
<ellipse cx="23.0524" cy="23" rx="19.9625" ry="20" fill="#F2F2EC"/>
</g>
<path d="M23.0524 44.5C34.9085 44.5 44.5149 34.8715 44.5149 23C44.5149 11.1285 34.9085 1.5 23.0524 1.5C11.1963 1.5 1.58984 11.1285 1.58984 23C1.58984 34.8715 11.1963 44.5 23.0524 44.5Z" stroke="#382D62" stroke-width="3"/>
<path d="M23.0015 17H22.9985C19.6903 17 17 19.691 17 23C17 24.3125 17.423 25.529 18.1423 26.5168L17.3945 28.7458L19.7008 28.0085C20.6495 28.637 21.7812 29 23.0015 29C26.3097 29 29 26.3082 29 23C29 19.6918 26.3097 17 23.0015 17ZM26.4927 25.4727C26.348 25.8815 25.7735 26.2205 25.3152 26.3195C25.0017 26.3862 24.5922 26.4395 23.2137 25.868C21.4505 25.1375 20.315 23.3457 20.2265 23.2295C20.1418 23.1132 19.514 22.2808 19.514 21.4198C19.514 20.5588 19.9513 20.1395 20.1275 19.9595C20.2723 19.8118 20.5115 19.7442 20.741 19.7442C20.8152 19.7442 20.882 19.748 20.942 19.751C21.1183 19.7585 21.2067 19.769 21.323 20.0473C21.4677 20.396 21.8202 21.257 21.8622 21.3455C21.905 21.434 21.9478 21.554 21.8878 21.6703C21.8315 21.7903 21.782 21.8435 21.6935 21.9455C21.605 22.0475 21.521 22.1255 21.4325 22.235C21.3515 22.3303 21.26 22.4323 21.362 22.6085C21.464 22.781 21.8165 23.3562 22.3355 23.8182C23.0052 24.4145 23.5482 24.605 23.7425 24.686C23.8872 24.746 24.0597 24.7318 24.1655 24.6193C24.2997 24.4745 24.4655 24.2345 24.6342 23.9983C24.7542 23.8288 24.9058 23.8077 25.0648 23.8677C25.2268 23.924 26.084 24.3477 26.2603 24.4355C26.4365 24.524 26.5527 24.566 26.5955 24.6403C26.6375 24.7145 26.6375 25.0632 26.4927 25.4727Z" fill="#382D62"/>
<defs>
<filter id="filter0_i_133_48" x="0.0898438" y="0" width="45.9258" height="46" filterUnits="userSpaceOnUse" color-interpolation-filters="sRGB">
<feFlood flood-opacity="0" result="BackgroundImageFix"/>
<feBlend mode="normal" in="SourceGraphic" in2="BackgroundImageFix" result="shape"/>
<feColorMatrix in="SourceAlpha" type="matrix" values="0 0 0 0 0 0 0 0 0 0 0 0 0 0 0 0 0 0 127 0" result="hardAlpha"/>
<feOffset/>
<feGaussianBlur stdDeviation="10"/>
<feComposite in2="hardAlpha" operator="arithmetic" k2="-1" k3="1"/>
<feColorMatrix type="matrix" values="0 0 0 0 1 0 0 0 0 1 0 0 0 0 1 0 0 0 0.6 0"/>
<feBlend mode="normal" in2="shape" result="effect1_innerShadow_133_48"/>
</filter>
</defs>
</svg>
