<svg width="189" height="31" viewBox="0 0 189 31" fill="none" xmlns="http://www.w3.org/2000/svg">
<path d="M16.704 6.96C17.792 6.96 18.824 7.152 19.8 7.536C20.776 7.904 21.624 8.456 22.344 9.192C23.08 9.912 23.664 10.816 24.096 11.904C24.528 12.992 24.744 14.248 24.744 15.672C24.744 17.096 24.528 18.352 24.096 19.44C23.68 20.512 23.104 21.416 22.368 22.152C21.632 22.872 20.776 23.416 19.8 23.784C18.84 24.152 17.808 24.336 16.704 24.336C15.696 24.336 14.736 24.184 13.824 23.88C12.912 23.56 12.096 23.088 11.376 22.464C10.656 21.84 10.064 21.064 9.6 20.136C9.136 19.208 8.84 18.136 8.712 16.92H5.664V24H1.92V7.368H5.664V13.752H8.784C8.976 12.648 9.312 11.672 9.792 10.824C10.288 9.976 10.888 9.264 11.592 8.688C12.296 8.112 13.08 7.68 13.944 7.392C14.824 7.104 15.744 6.96 16.704 6.96ZM16.704 21.072C18.032 21.072 19.056 20.592 19.776 19.632C20.512 18.672 20.88 17.352 20.88 15.672C20.88 13.992 20.512 12.664 19.776 11.688C19.056 10.712 18.032 10.224 16.704 10.224C15.376 10.224 14.336 10.712 13.584 11.688C12.848 12.664 12.48 13.992 12.48 15.672C12.48 17.352 12.848 18.672 13.584 19.632C14.336 20.592 15.376 21.072 16.704 21.072ZM33.2893 14.304C33.2733 14.768 33.2493 15.264 33.2173 15.792C33.2013 16.304 33.1613 16.824 33.0973 17.352C33.0333 17.864 32.9453 18.368 32.8333 18.864C32.7373 19.36 32.6093 19.824 32.4493 20.256C32.2573 20.768 32.0093 21.248 31.7053 21.696C31.4173 22.128 31.0413 22.52 30.5773 22.872C30.1293 23.224 29.5773 23.52 28.9213 23.76C28.2813 23.984 27.5293 24.136 26.6653 24.216L26.1853 21.24C27.0013 21.08 27.6333 20.856 28.0813 20.568C28.5293 20.264 28.8653 19.88 29.0893 19.416C29.2653 19.016 29.4013 18.552 29.4973 18.024C29.6093 17.496 29.6893 16.944 29.7373 16.368C29.7853 15.776 29.8093 15.176 29.8093 14.568C29.8253 13.96 29.8333 13.376 29.8333 12.816V11.376H39.3133V24H35.7373V14.304H33.2893ZM54.1682 11.376V24H50.5682C50.5682 23.2 50.5762 22.408 50.5922 21.624C50.6082 20.824 50.6242 20.088 50.6402 19.416C50.6562 18.744 50.6722 18.16 50.6882 17.664C50.7202 17.152 50.7362 16.776 50.7362 16.536C50.2722 17.192 49.8082 17.856 49.3442 18.528C48.8802 19.2 48.4322 19.864 48.0002 20.52C47.5842 21.16 47.1842 21.776 46.8002 22.368C46.4322 22.96 46.1042 23.504 45.8162 24H42.6722V11.376H46.2482C46.2482 12.176 46.2402 12.944 46.2242 13.68C46.2242 14.4 46.2162 15.056 46.2002 15.648C46.1842 16.24 46.1682 16.76 46.1522 17.208C46.1362 17.64 46.1282 17.976 46.1282 18.216C47.0882 16.808 47.9682 15.544 48.7682 14.424C49.5842 13.304 50.3762 12.288 51.1442 11.376H54.1682ZM62.7636 19.512C62.2516 20.264 61.7956 21.024 61.3956 21.792C60.9956 22.544 60.6116 23.28 60.2436 24H56.5716C57.0356 22.96 57.5076 22.008 57.9876 21.144C58.4676 20.28 58.9316 19.536 59.3796 18.912C58.7076 18.56 58.1716 18.112 57.7716 17.568C57.3716 17.008 57.1716 16.312 57.1716 15.48C57.1716 14.072 57.6756 12.992 58.6836 12.24C59.7076 11.488 61.1156 11.112 62.9076 11.112C63.3076 11.112 63.7476 11.128 64.2276 11.16C64.7236 11.192 65.2116 11.24 65.6916 11.304C66.1716 11.368 66.6276 11.44 67.0596 11.52C67.5076 11.584 67.8836 11.656 68.1876 11.736V24H64.6116V19.512H62.7636ZM64.6116 13.944C64.4516 13.928 64.2036 13.912 63.8676 13.896C63.5316 13.864 63.2436 13.848 63.0036 13.848C62.1236 13.848 61.5236 14 61.2036 14.304C60.8836 14.592 60.7236 14.968 60.7236 15.432C60.7236 15.72 60.7876 15.968 60.9156 16.176C61.0436 16.368 61.2116 16.528 61.4196 16.656C61.6276 16.768 61.8596 16.848 62.1156 16.896C62.3716 16.944 62.6276 16.968 62.8836 16.968H64.6116V13.944ZM85.1368 24.336C82.4328 24.336 80.3688 23.584 78.9448 22.08C77.5368 20.576 76.8328 18.44 76.8328 15.672C76.8328 14.296 77.0488 13.072 77.4808 12C77.9128 10.912 78.5048 10 79.2568 9.264C80.0088 8.512 80.9048 7.944 81.9448 7.56C82.9848 7.176 84.1128 6.984 85.3288 6.984C86.0328 6.984 86.6728 7.04 87.2488 7.152C87.8248 7.248 88.3288 7.368 88.7608 7.512C89.1928 7.64 89.5528 7.776 89.8408 7.92C90.1288 8.064 90.3368 8.176 90.4648 8.256L89.3848 11.28C88.8728 11.008 88.2728 10.776 87.5848 10.584C86.9128 10.392 86.1448 10.296 85.2808 10.296C84.7048 10.296 84.1368 10.392 83.5768 10.584C83.0328 10.776 82.5448 11.088 82.1128 11.52C81.6968 11.936 81.3608 12.48 81.1048 13.152C80.8488 13.824 80.7208 14.64 80.7208 15.6C80.7208 16.368 80.8008 17.088 80.9608 17.76C81.1368 18.416 81.4088 18.984 81.7768 19.464C82.1608 19.944 82.6568 20.328 83.2648 20.616C83.8728 20.888 84.6088 21.024 85.4728 21.024C86.0168 21.024 86.5048 20.992 86.9368 20.928C87.3688 20.864 87.7528 20.792 88.0888 20.712C88.4248 20.616 88.7208 20.512 88.9768 20.4C89.2328 20.288 89.4648 20.184 89.6728 20.088L90.7048 23.088C90.1768 23.408 89.4328 23.696 88.4728 23.952C87.5128 24.208 86.4008 24.336 85.1368 24.336ZM97.9337 21.504C98.2857 21.504 98.6217 21.496 98.9417 21.48C99.2617 21.464 99.5177 21.44 99.7097 21.408V18.696C99.5657 18.664 99.3497 18.632 99.0617 18.6C98.7737 18.568 98.5097 18.552 98.2697 18.552C97.9337 18.552 97.6137 18.576 97.3097 18.624C97.0217 18.656 96.7657 18.728 96.5417 18.84C96.3177 18.952 96.1417 19.104 96.0137 19.296C95.8857 19.488 95.8217 19.728 95.8217 20.016C95.8217 20.576 96.0057 20.968 96.3737 21.192C96.7577 21.4 97.2777 21.504 97.9337 21.504ZM97.6457 11.04C98.7017 11.04 99.5817 11.16 100.286 11.4C100.99 11.64 101.55 11.984 101.966 12.432C102.398 12.88 102.702 13.424 102.878 14.064C103.054 14.704 103.142 15.416 103.142 16.2V23.64C102.63 23.752 101.918 23.88 101.006 24.024C100.094 24.184 98.9897 24.264 97.6937 24.264C96.8777 24.264 96.1337 24.192 95.4617 24.048C94.8057 23.904 94.2377 23.672 93.7577 23.352C93.2777 23.016 92.9097 22.584 92.6537 22.056C92.3977 21.528 92.2697 20.88 92.2697 20.112C92.2697 19.376 92.4137 18.752 92.7017 18.24C93.0057 17.728 93.4057 17.32 93.9017 17.016C94.3977 16.712 94.9657 16.496 95.6057 16.368C96.2457 16.224 96.9097 16.152 97.5977 16.152C98.0617 16.152 98.4697 16.176 98.8217 16.224C99.1897 16.256 99.4857 16.304 99.7097 16.368V16.032C99.7097 15.424 99.5257 14.936 99.1577 14.568C98.7897 14.2 98.1497 14.016 97.2377 14.016C96.6297 14.016 96.0297 14.064 95.4377 14.16C94.8457 14.24 94.3337 14.36 93.9017 14.52L93.4457 11.64C93.6537 11.576 93.9097 11.512 94.2137 11.448C94.5337 11.368 94.8777 11.304 95.2457 11.256C95.6137 11.192 95.9977 11.144 96.3977 11.112C96.8137 11.064 97.2297 11.04 97.6457 11.04ZM117.247 11.376V24H113.671V14.352H109.951V24H106.375V11.376H117.247ZM131.81 11.376C131.09 13.808 130.338 16.088 129.554 18.216C128.77 20.344 127.914 22.408 126.986 24.408C126.65 25.128 126.314 25.736 125.978 26.232C125.642 26.744 125.274 27.16 124.874 27.48C124.474 27.816 124.018 28.056 123.506 28.2C123.01 28.36 122.426 28.44 121.754 28.44C121.194 28.44 120.674 28.384 120.194 28.272C119.73 28.176 119.346 28.064 119.042 27.936L119.666 25.08C120.034 25.208 120.362 25.296 120.65 25.344C120.938 25.392 121.242 25.416 121.562 25.416C122.202 25.416 122.69 25.24 123.026 24.888C123.378 24.552 123.674 24.08 123.914 23.472C123.098 21.872 122.282 20.08 121.466 18.096C120.65 16.096 119.882 13.856 119.162 11.376H122.954C123.114 12 123.298 12.68 123.506 13.416C123.73 14.136 123.962 14.872 124.202 15.624C124.442 16.36 124.682 17.08 124.922 17.784C125.178 18.488 125.418 19.128 125.642 19.704C125.85 19.128 126.066 18.488 126.29 17.784C126.514 17.08 126.73 16.36 126.938 15.624C127.162 14.872 127.37 14.136 127.562 13.416C127.77 12.68 127.954 12 128.114 11.376H131.81ZM144.599 24H141.023V19.008H137.303V24H133.727V11.376H137.303V16.08H141.023V11.376H144.599V24ZM159.761 17.664C159.761 18.656 159.617 19.568 159.329 20.4C159.041 21.216 158.625 21.92 158.081 22.512C157.537 23.088 156.881 23.536 156.113 23.856C155.361 24.176 154.513 24.336 153.569 24.336C152.641 24.336 151.793 24.176 151.025 23.856C150.273 23.536 149.625 23.088 149.081 22.512C148.537 21.92 148.113 21.216 147.809 20.4C147.505 19.568 147.353 18.656 147.353 17.664C147.353 16.672 147.505 15.768 147.809 14.952C148.129 14.136 148.561 13.44 149.105 12.864C149.665 12.288 150.321 11.84 151.073 11.52C151.841 11.2 152.673 11.04 153.569 11.04C154.481 11.04 155.313 11.2 156.065 11.52C156.833 11.84 157.489 12.288 158.033 12.864C158.577 13.44 159.001 14.136 159.305 14.952C159.609 15.768 159.761 16.672 159.761 17.664ZM156.113 17.664C156.113 16.56 155.889 15.696 155.441 15.072C155.009 14.432 154.385 14.112 153.569 14.112C152.753 14.112 152.121 14.432 151.673 15.072C151.225 15.696 151.001 16.56 151.001 17.664C151.001 18.768 151.225 19.648 151.673 20.304C152.121 20.944 152.753 21.264 153.569 21.264C154.385 21.264 155.009 20.944 155.441 20.304C155.889 19.648 156.113 18.768 156.113 17.664ZM166.108 21.36C166.332 21.392 166.628 21.424 166.996 21.456C167.38 21.472 167.732 21.48 168.052 21.48C168.852 21.48 169.476 21.384 169.924 21.192C170.372 20.984 170.596 20.616 170.596 20.088C170.596 19.576 170.388 19.224 169.972 19.032C169.572 18.824 168.98 18.72 168.196 18.72H166.108V21.36ZM168.124 16.32C168.716 16.32 169.196 16.248 169.564 16.104C169.932 15.944 170.116 15.608 170.116 15.096C170.116 14.616 169.908 14.288 169.492 14.112C169.076 13.936 168.532 13.848 167.86 13.848C167.636 13.848 167.34 13.864 166.972 13.896C166.62 13.912 166.332 13.936 166.108 13.968V16.32H168.124ZM168.004 24.24C167.556 24.24 167.076 24.224 166.564 24.192C166.052 24.16 165.548 24.112 165.052 24.048C164.556 24 164.084 23.944 163.636 23.88C163.204 23.8 162.836 23.728 162.532 23.664V11.568C162.836 11.504 163.204 11.448 163.636 11.4C164.084 11.336 164.556 11.28 165.052 11.232C165.548 11.184 166.052 11.152 166.564 11.136C167.076 11.104 167.556 11.088 168.004 11.088C169.044 11.088 169.916 11.192 170.62 11.4C171.34 11.608 171.916 11.88 172.348 12.216C172.796 12.552 173.116 12.928 173.308 13.344C173.5 13.76 173.596 14.176 173.596 14.592C173.596 15.152 173.46 15.664 173.188 16.128C172.916 16.592 172.572 16.928 172.156 17.136C172.38 17.232 172.604 17.368 172.828 17.544C173.068 17.72 173.284 17.936 173.476 18.192C173.668 18.432 173.82 18.728 173.932 19.08C174.06 19.416 174.124 19.808 174.124 20.256C174.124 20.768 174.02 21.264 173.812 21.744C173.62 22.224 173.284 22.648 172.804 23.016C172.324 23.384 171.692 23.68 170.908 23.904C170.124 24.128 169.156 24.24 168.004 24.24ZM181.699 21.504C182.051 21.504 182.387 21.496 182.707 21.48C183.027 21.464 183.283 21.44 183.475 21.408V18.696C183.331 18.664 183.115 18.632 182.827 18.6C182.539 18.568 182.275 18.552 182.035 18.552C181.699 18.552 181.379 18.576 181.075 18.624C180.787 18.656 180.531 18.728 180.307 18.84C180.083 18.952 179.907 19.104 179.779 19.296C179.651 19.488 179.587 19.728 179.587 20.016C179.587 20.576 179.771 20.968 180.139 21.192C180.523 21.4 181.043 21.504 181.699 21.504ZM181.411 11.04C182.467 11.04 183.347 11.16 184.051 11.4C184.755 11.64 185.315 11.984 185.731 12.432C186.163 12.88 186.467 13.424 186.643 14.064C186.819 14.704 186.907 15.416 186.907 16.2V23.64C186.395 23.752 185.683 23.88 184.771 24.024C183.859 24.184 182.755 24.264 181.459 24.264C180.643 24.264 179.899 24.192 179.227 24.048C178.571 23.904 178.003 23.672 177.523 23.352C177.043 23.016 176.675 22.584 176.419 22.056C176.163 21.528 176.035 20.88 176.035 20.112C176.035 19.376 176.179 18.752 176.467 18.24C176.771 17.728 177.171 17.32 177.667 17.016C178.163 16.712 178.731 16.496 179.371 16.368C180.011 16.224 180.675 16.152 181.363 16.152C181.827 16.152 182.235 16.176 182.587 16.224C182.955 16.256 183.251 16.304 183.475 16.368V16.032C183.475 15.424 183.291 14.936 182.923 14.568C182.555 14.2 181.915 14.016 181.003 14.016C180.395 14.016 179.795 14.064 179.203 14.16C178.611 14.24 178.099 14.36 177.667 14.52L177.211 11.64C177.419 11.576 177.675 11.512 177.979 11.448C178.299 11.368 178.643 11.304 179.011 11.256C179.379 11.192 179.763 11.144 180.163 11.112C180.579 11.064 180.995 11.04 181.411 11.04Z" fill="url(#paint0_linear_121_7)"/>
<defs>
<linearGradient id="paint0_linear_121_7" x1="3.16656" y1="0.352724" x2="171.117" y2="0.352717" gradientUnits="userSpaceOnUse">
<stop offset="0.598025" stop-color="#9C8876"/>
<stop offset="1" stop-color="#3E5287"/>
</linearGradient>
</defs>
</svg>
