<svg width="13" height="15" viewBox="0 0 13 15" fill="none" xmlns="http://www.w3.org/2000/svg">
<path d="M12.5859 7.77583C12.5859 7.86556 12.5627 7.95373 12.5185 8.03167C12.4744 8.10961 12.4108 8.17462 12.334 8.22029L1.04758 14.931C0.96967 14.9773 0.880953 15.0021 0.790438 15.0028C0.699923 15.0035 0.610834 14.9801 0.532214 14.935C0.453594 14.8899 0.388243 14.8246 0.342794 14.7458C0.297345 14.6671 0.273416 14.5776 0.273438 14.4865V1.06515C0.273416 0.974075 0.297345 0.884611 0.342794 0.805845C0.388243 0.727079 0.453594 0.661815 0.532214 0.616677C0.610834 0.57154 0.699923 0.548137 0.790438 0.548844C0.880953 0.54955 0.96967 0.574342 1.04758 0.620701L12.334 7.33138C12.4108 7.37705 12.4744 7.44206 12.5185 7.52C12.5627 7.59794 12.5859 7.68611 12.5859 7.77583Z" fill="#827E90"/>
</svg>
