<svg width="13" height="16" viewBox="0 0 13 16" fill="none" xmlns="http://www.w3.org/2000/svg">
<path d="M0.274547 7.73488C0.275119 7.64516 0.298921 7.55713 0.343605 7.47949C0.388291 7.40184 0.452315 7.33726 0.529368 7.29209L11.8598 0.656036C11.9381 0.610192 12.0269 0.585986 12.1174 0.585877C12.208 0.585768 12.2969 0.609758 12.3752 0.655413C12.4535 0.701068 12.5185 0.766763 12.5634 0.845827C12.6083 0.924892 12.6317 1.01451 12.631 1.10559L12.5425 14.5267C12.5419 14.6177 12.5174 14.707 12.4714 14.7855C12.4254 14.864 12.3597 14.9288 12.2807 14.9734C12.2018 15.018 12.1126 15.0408 12.0221 15.0395C11.9316 15.0382 11.843 15.0129 11.7654 14.966L0.523502 8.18098C0.447053 8.13481 0.383886 8.06938 0.340229 7.99115C0.296573 7.91292 0.273935 7.8246 0.274547 7.73488Z" fill="#827E90"/>
</svg>
